# xmcd
#
# Track frame offsets:
#	150
#	6045
#	19257
#	28512
#	39172
#	58232
#	68652
#	79922
#	87260
#	97595
#	106360
#	117622
#	127467
#	144845
#	156077
#	174965
#	189280
#	207432
#	219192
#	234102
#	249752
#	266742
#	277110
#	292172
#	320677
#
# Disc length: 4408 seconds
#
# Revision: 1
# Processed by: cddbd v1.5.1PL0 Copyright (c) Steve Scherf et al.
# Submitted via: CDex 1.50Beta5
#
DISCID=5c113619
DTITLE=ザ・スプートニクス - スプートニクス・イン・ジャパン
DYEAR=1991
DGENRE=Rock
TTITLE0=ザ・スプートニクスのテーマ
TTITLE1=ジャ二ー・ギター
TTITLE2=何も云わないで
TTITLE3=ハヴァ・ナギラ
TTITLE4=聖者の行進
TTITLE5=涙の太陽
TTITLE6=霧のカレリア
TTITLE7=空の終列車
TTITLE8=ヘイ・グッド・ルッキン
TTITLE9=夏の日の思いで
TTITLE10=アーヴァー・アンド・オーヴァー
TTITLE11=ワバッシュ・キャノンボール
TTITLE12=ホワット・アイ・セイ
TTITLE13=見上げてごらん夜の星を
TTITLE14=Theme From"For A Few Dollars More"
TTITLE15=Jessica
TTITLE16=What's Going On
TTITLE17=Israeli Dance
TTITLE18=Sylvia
TTITLE19=If You Could Read My Mind
TTITLE20=Hernandos Hideway
TTITLE21=Holiday Hotel
TTITLE22=Diamonds
TTITLE23=Long Train Running
TTITLE24=Wildwood Flower
EXTD=
EXTT0=
EXTT1=
EXTT2=
EXTT3=
EXTT4=
EXTT5=
EXTT6=
EXTT7=
EXTT8=
EXTT9=
EXTT10=
EXTT11=
EXTT12=
EXTT13=
EXTT14=
EXTT15=
EXTT16=
EXTT17=
EXTT18=
EXTT19=
EXTT20=
EXTT21=
EXTT22=
EXTT23=
EXTT24=
PLAYORDER=
